<?xml version="1.0" encoding="utf-8"?>
<!-- Generator: Adobe Illustrator 27.5.0, SVG Export Plug-In . SVG Version: 6.00 Build 0)  -->
<svg version="1.1" id="Layer_1" xmlns="http://www.w3.org/2000/svg" xmlns:xlink="http://www.w3.org/1999/xlink" x="0px" y="0px"
	 viewBox="0 0 1000 800" style="enable-background:new 0 0 1000 800;" xml:space="preserve">
<g>
	
		<radialGradient id="SVGID_1_" cx="493.0124" cy="366.2756" r="153.2416" gradientTransform="matrix(0.9679 0 0 1 17.4599 0)" gradientUnits="userSpaceOnUse">
		<stop  offset="0" style="stop-color:#FDE370"/>
		<stop  offset="0.897" style="stop-color:#FBB90B"/>
		<stop  offset="1" style="stop-color:#FBAB0B"/>
	</radialGradient>
	<path style="fill:url(#SVGID_1_);" d="M609.808,501.077c31.456-31.052,47.133-68.503,47.133-112.353
		c0-43.846-15.677-81.297-47.133-112.351c-31.354-31.054-69.199-46.53-113.635-46.53c-44.435,0-82.282,15.477-113.736,46.53
		c-31.355,31.054-47.032,68.504-47.032,112.351c0,43.85,15.677,81.301,47.032,112.353c31.454,31.055,69.301,46.53,113.736,46.53
		C540.608,547.607,578.454,532.131,609.808,501.077L609.808,501.077z"/>
	
		<linearGradient id="SVGID_00000174571828172905435620000009801030321380629157_" gradientUnits="userSpaceOnUse" x1="502.1448" y1="469.1365" x2="501.6081" y2="419.7742">
		<stop  offset="0" style="stop-color:#FBB00B"/>
		<stop  offset="0.0152" style="stop-color:#FBBA27"/>
		<stop  offset="0.0388" style="stop-color:#FCC74B"/>
		<stop  offset="0.0653" style="stop-color:#FCD36B"/>
		<stop  offset="0.0946" style="stop-color:#FCDD87"/>
		<stop  offset="0.1278" style="stop-color:#FDE59D"/>
		<stop  offset="0.1665" style="stop-color:#FDEBAE"/>
		<stop  offset="0.2143" style="stop-color:#FDEFB9"/>
		<stop  offset="0.2814" style="stop-color:#FDF1C0"/>
		<stop  offset="0.4677" style="stop-color:#FDF2C2"/>
		<stop  offset="0.569" style="stop-color:#FDF1BF"/>
		<stop  offset="0.6488" style="stop-color:#FDEDB5"/>
		<stop  offset="0.7212" style="stop-color:#FDE7A4"/>
		<stop  offset="0.7893" style="stop-color:#FCDF8D"/>
		<stop  offset="0.8544" style="stop-color:#FCD46E"/>
		<stop  offset="0.9172" style="stop-color:#FCC649"/>
		<stop  offset="0.977" style="stop-color:#FBB71E"/>
		<stop  offset="1" style="stop-color:#FBB00B"/>
	</linearGradient>
	<path style="fill:url(#SVGID_00000174571828172905435620000009801030321380629157_);" d="M439.395,428.377
		c-2.788-2.318,14.293,34.189,61.783,33.167c23.229-0.5,42.102-8.667,63.073-37.5c0,0-26.681,27.148-63.396,26.916
		C461.414,450.71,436.089,425.627,439.395,428.377z"/>
	
		<linearGradient id="SVGID_00000164476158299255660980000017654649663753839551_" gradientUnits="userSpaceOnUse" x1="499.1378" y1="389.1334" x2="500.1735" y2="444.8733">
		<stop  offset="0" style="stop-color:#FDE370"/>
		<stop  offset="0.1797" style="stop-color:#FDDD61"/>
		<stop  offset="0.5225" style="stop-color:#FCCD3B"/>
		<stop  offset="0.897" style="stop-color:#FBB90B"/>
		<stop  offset="1" style="stop-color:#FBAB0B"/>
	</linearGradient>
	<path style="fill:url(#SVGID_00000164476158299255660980000017654649663753839551_);" d="M431.652,416.71
		c0,0,61.944-27.5,135.987-0.5c0,0-5.276,9.164-16.938,17c-20.071,13.488-58.629,26.424-100.175,0.5
		C443.652,429.421,438.849,423.341,431.652,416.71z"/>
	<path style="fill:#CC6600;" d="M611.377,275.019c-31.518-31.218-70.167-47.046-114.877-47.046
		c-44.674,0-83.357,15.828-114.977,47.046c-31.576,31.272-47.587,69.523-47.587,113.69c0,44.169,16.011,82.419,47.587,113.693
		c31.619,31.218,70.302,47.046,114.976,47.046c44.707,0,83.358-15.828,114.877-47.046c31.643-31.236,47.687-69.488,47.687-113.693
		C659.063,344.507,643.02,306.256,611.377,275.019z M496.5,545.737c-43.719,0-81.567-15.482-112.493-46.015
		c-30.841-30.543-46.479-67.893-46.479-111.013c0-43.118,15.636-80.467,46.477-111.01c30.927-30.533,68.775-46.015,112.495-46.015
		c43.753,0,81.568,15.482,112.393,46.015c30.908,30.51,46.579,67.859,46.579,111.01c0,43.152-15.671,80.501-46.579,111.013
		C578.066,530.255,540.251,545.737,496.5,545.737z"/>
	
		<linearGradient id="SVGID_00000024724137895925877910000008076886942488098487_" gradientUnits="userSpaceOnUse" x1="496.9778" y1="277.2286" x2="499.4633" y2="443.7592">
		<stop  offset="0" style="stop-color:#FDF2C2"/>
		<stop  offset="0.3394" style="stop-color:#FCE187"/>
		<stop  offset="1" style="stop-color:#FBBE0B"/>
	</linearGradient>
	<path style="fill:url(#SVGID_00000024724137895925877910000008076886942488098487_);" d="M635.509,363.307
		c0,51.852-59.143-8.899-134.944-8.899c-75.801,0-139.55,60.751-139.55,8.899c0-51.851,61.446-113.216,137.246-113.216
		C574.06,250.091,635.509,311.456,635.509,363.307z"/>
	
		<radialGradient id="SVGID_00000164475267908805610230000005716296404596245893_" cx="436.4142" cy="411.1429" r="52.9201" gradientTransform="matrix(-0.9679 0 0 1 837.3622 0)" gradientUnits="userSpaceOnUse">
		<stop  offset="0" style="stop-color:#FD8303"/>
		<stop  offset="0.9785" style="stop-color:#FBD23F"/>
	</radialGradient>
	
		<ellipse style="fill:url(#SVGID_00000164475267908805610230000005716296404596245893_);" cx="414.957" cy="391.143" rx="42.345" ry="34.099"/>
	
		<radialGradient id="SVGID_00000078037932010065744090000005571407464569570748_" cx="587.6749" cy="407.8099" r="52.9201" gradientTransform="matrix(0.9679 0 0 1 17.4599 0)" gradientUnits="userSpaceOnUse">
		<stop  offset="0" style="stop-color:#FD8303"/>
		<stop  offset="0.9785" style="stop-color:#FBD23F"/>
	</radialGradient>
	
		<ellipse style="fill:url(#SVGID_00000078037932010065744090000005571407464569570748_);" cx="586.27" cy="387.809" rx="42.345" ry="34.099"/>
	
		<linearGradient id="SVGID_00000183944807395438999320000013734164151618135433_" gradientUnits="userSpaceOnUse" x1="384.0889" y1="539.0112" x2="395.833" y2="525.2442" gradientTransform="matrix(0.9808 0.1948 -0.1948 0.9808 98.0627 -122.3112)">
		<stop  offset="0" style="stop-color:#FDF2C2"/>
		<stop  offset="1" style="stop-color:#FBB00B"/>
	</linearGradient>
	<path style="fill:url(#SVGID_00000183944807395438999320000013734164151618135433_);" d="M425.527,524.311
		c-3.422,3.9-33.875-15.865-54.104-42.844c-20.228-26.978-32.886-69.361-25.462-68.008c0,0,9.907,34.392,30.136,61.368
		C396.328,501.807,425.527,524.311,425.527,524.311z"/>
	
		<linearGradient id="SVGID_00000073708867907153054510000003726328452355492011_" gradientUnits="userSpaceOnUse" x1="1096.1688" y1="430.6792" x2="1109.2429" y2="415.353" gradientTransform="matrix(-0.9776 0.2107 0.2107 0.9776 1609.22 -175.7029)">
		<stop  offset="0" style="stop-color:#FDF2C2"/>
		<stop  offset="1" style="stop-color:#FBB00B"/>
	</linearGradient>
	<path style="fill:url(#SVGID_00000073708867907153054510000003726328452355492011_);" d="M571.733,522.196
		c3.083,2.268,33.62-16.432,53.424-43.744c19.802-27.314,29.802-74.018,25.653-74.018c-2.658,0-7.276,40.372-27.078,67.687
		C603.928,499.434,571.733,522.196,571.733,522.196z"/>
	
		<radialGradient id="SVGID_00000023979204062808263470000003968753858000347018_" cx="492.0883" cy="495.1232" r="84.994" gradientTransform="matrix(0.9679 0 0 1 17.4599 0)" gradientUnits="userSpaceOnUse">
		<stop  offset="0" style="stop-color:#BC5B02"/>
		<stop  offset="1" style="stop-color:#BC5B02"/>
	</radialGradient>
	<path style="fill:url(#SVGID_00000023979204062808263470000003968753858000347018_);" d="M503.578,457.96
		c30.045-1,60.942-21.728,70.618-54.194c0.645-2.163-2.626-3.081-3.267-0.93c-9.192,30.842-40.036,39.117-68.077,40.061
		c-0.116,0.004-7.445-0.183-7.561-0.188c-28.034-1.156-58.553-9.032-67.745-39.874c-0.641-2.151-3.911-1.233-3.267,0.93
		c9.676,32.467,43.124,53.507,71.314,54.132C495.709,457.901,503.461,457.964,503.578,457.96z"/>
	<path style="fill:#BC5B02;" d="M556.831,401.794c11.791,0.493,23.465,2.423,33.001,10.153c1.698,1.376,4.112-1.082,2.395-2.475
		c-10.301-8.35-22.607-10.644-35.397-11.179C554.645,398.203,554.654,401.703,556.831,401.794L556.831,401.794z"/>
	
		<linearGradient id="SVGID_00000155134387088015817060000003033198937057668772_" gradientUnits="userSpaceOnUse" x1="548.577" y1="361.6016" x2="549.0765" y2="343.6171">
		<stop  offset="0" style="stop-color:#FDF0A6"/>
		<stop  offset="1" style="stop-color:#FBB90B"/>
	</linearGradient>
	<path style="fill:url(#SVGID_00000155134387088015817060000003033198937057668772_);" d="M518.761,366.21c0,0-0.242,13,6.533,5.5
		c0,0,9.93-10.51,22.261-10c6.049,0.25,12.582,0.75,23.955,10.75c1.705,1.5,9.195,0.75,5.565-7.25
		C577.076,365.21,542.474,329.46,518.761,366.21z"/>
	
		<radialGradient id="SVGID_00000060718582108436495280000016945651409924440990_" cx="551.6045" cy="392.4807" r="24.0089" gradientTransform="matrix(0.9679 0 0 1 17.4599 0)" gradientUnits="userSpaceOnUse">
		<stop  offset="0" style="stop-color:#FDE370"/>
		<stop  offset="0.897" style="stop-color:#FBB90B"/>
		<stop  offset="1" style="stop-color:#ED990B"/>
	</radialGradient>
	<path style="fill:url(#SVGID_00000060718582108436495280000016945651409924440990_);" d="M526.182,347.044
		c0,0,2.43-5.251,7.823-8.083c11.355-5.964,32.666-7.5,43.796,14.417c2.85,5.612,2.904,11.833,0.322,18.333
		C578.124,371.71,552.96,330.044,526.182,347.044z"/>
	
		<radialGradient id="SVGID_00000003793512607970613380000006865161952503395999_" cx="548.007" cy="371.5692" r="43.3377" gradientTransform="matrix(0.9679 0 0 1 17.4599 0)" gradientUnits="userSpaceOnUse">
		<stop  offset="0.4916" style="stop-color:#704104"/>
		<stop  offset="0.5514" style="stop-color:#6D3E04"/>
		<stop  offset="0.5965" style="stop-color:#633604"/>
		<stop  offset="0.6367" style="stop-color:#532804"/>
		<stop  offset="0.6535" style="stop-color:#4A2004"/>
	</radialGradient>
	<path style="fill:url(#SVGID_00000003793512607970613380000006865161952503395999_);" d="M547.797,356.377
		c13.873-1,24.44,15,27.706,14.333c1.389-0.284,1.331-3.875,1.144-7.124c-0.837-14.534-11.95-25.186-27.8-25.376
		c-13.941-0.167-25.487,6.833-28.15,21.25c-0.632,3.421-0.682,12.914,1.21,10.75C528.682,362.46,534.601,357.328,547.797,356.377z"
		/>
	<path style="fill:#351503;" d="M575.294,372.231c-1.674,0-3.58-1.662-6.463-4.176c-4.888-4.263-12.371-10.799-20.932-10.181
		c-13.128,0.946-18.607,6.126-24.914,13.342c-0.586,0.671-1.188,0.811-1.59,0.811c-0.001,0-0.001,0-0.001,0
		c-0.56,0-1.079-0.263-1.461-0.741c-1.621-2.026-1.056-9.973-0.662-12.107c2.599-14.071,13.474-22.472,29.091-22.472l0.502,0.003
		c16.314,0.195,28.335,11.21,29.232,26.787c0.247,4.278,0.255,8.161-2.311,8.685C575.628,372.214,575.464,372.231,575.294,372.231z
		 M549.05,354.832c9.121,0,16.664,6.577,21.654,10.93c1.56,1.36,3.461,3.019,4.339,3.393c0.184-0.544,0.358-1.937,0.154-5.479
		c-0.803-13.935-11.646-23.789-26.368-23.965l-0.468-0.003c-14.113,0-23.922,7.489-26.239,20.034
		c-0.406,2.197-0.474,6.091-0.232,8.262c6.182-6.91,12.398-12.156,25.806-13.123C548.15,354.848,548.603,354.832,549.05,354.832z"/>
	<path style="fill:#BC5B02;" d="M442.864,398.044c-12.789,0.534-25.096,2.829-35.396,11.179c-1.718,1.393,0.698,3.851,2.395,2.475
		c9.536-7.73,21.21-9.66,33.001-10.153C445.04,401.453,445.049,397.953,442.864,398.044L442.864,398.044z"/>
	
		<linearGradient id="SVGID_00000013903972211901934490000008712095720528642973_" gradientUnits="userSpaceOnUse" x1="559.8107" y1="362.6016" x2="560.3102" y2="344.6171" gradientTransform="matrix(-1 0 0 1 1011.2734 0)">
		<stop  offset="0" style="stop-color:#FDF0A6"/>
		<stop  offset="1" style="stop-color:#FBB90B"/>
	</linearGradient>
	<path style="fill:url(#SVGID_00000013903972211901934490000008712095720528642973_);" d="M481.279,367.21c0,0,0.242,13-6.533,5.5
		c0,0-9.93-10.51-22.261-10c-6.049,0.25-12.582,0.75-23.955,10.75c-1.705,1.5-9.195,0.75-5.565-7.25
		C422.964,366.21,457.566,330.46,481.279,367.21z"/>
	
		<radialGradient id="SVGID_00000155122857829154393190000006466617858154082702_" cx="565.3392" cy="393.4807" r="24.0089" gradientTransform="matrix(-0.9679 0 0 1 995.8736 0)" gradientUnits="userSpaceOnUse">
		<stop  offset="0" style="stop-color:#FDE370"/>
		<stop  offset="0.897" style="stop-color:#FBB90B"/>
		<stop  offset="1" style="stop-color:#ED990B"/>
	</radialGradient>
	<path style="fill:url(#SVGID_00000155122857829154393190000006466617858154082702_);" d="M473.858,348.044
		c0,0-2.43-5.252-7.823-8.084c-11.355-5.964-32.666-7.5-43.796,14.417c-2.85,5.612-2.904,11.833-0.322,18.333
		C421.916,372.71,447.08,331.044,473.858,348.044z"/>
	
		<radialGradient id="SVGID_00000047039576362271015820000003702833392404902056_" cx="561.7417" cy="372.5692" r="43.3377" gradientTransform="matrix(-0.9679 0 0 1 995.8736 0)" gradientUnits="userSpaceOnUse">
		<stop  offset="0.4916" style="stop-color:#704104"/>
		<stop  offset="0.5514" style="stop-color:#6D3E04"/>
		<stop  offset="0.5965" style="stop-color:#633604"/>
		<stop  offset="0.6367" style="stop-color:#532804"/>
		<stop  offset="0.6535" style="stop-color:#4A2004"/>
	</radialGradient>
	<path style="fill:url(#SVGID_00000047039576362271015820000003702833392404902056_);" d="M452.242,357.377
		c-13.872-1-24.44,15-27.705,14.333c-1.389-0.283-1.331-3.875-1.144-7.124c0.837-14.534,11.95-25.186,27.8-25.376
		c13.941-0.167,25.487,6.833,28.15,21.25c0.633,3.422,0.682,12.914-1.21,10.75C471.358,363.46,465.439,358.328,452.242,357.377z"/>
	<path style="fill:#351503;" d="M424.746,373.231c-0.171,0-0.334-0.017-0.491-0.049c-2.566-0.523-2.558-4.407-2.311-8.685
		c0.898-15.577,12.918-26.592,29.232-26.787l0.502-0.003c15.617,0,26.492,8.401,29.091,22.472
		c0.394,2.135,0.959,10.083-0.662,12.108c-0.382,0.478-0.901,0.741-1.462,0.741c-0.402,0-1.004-0.141-1.59-0.812
		c-6.308-7.215-11.787-12.396-24.914-13.342c-8.56-0.617-16.045,5.918-20.933,10.181C428.325,371.569,426.42,373.23,424.746,373.231
		z M451.678,340.707l-0.468,0.003c-14.722,0.176-25.564,10.031-26.367,23.965c-0.204,3.542-0.031,4.935,0.153,5.479
		c0.878-0.374,2.78-2.033,4.339-3.393c5.236-4.566,13.296-11.584,23.008-10.881c13.414,0.967,19.631,6.218,25.806,13.123
		c0.242-2.171,0.174-6.065-0.232-8.262C475.6,348.197,465.791,340.707,451.678,340.707z"/>
	<path d="M387.863,549.154c-0.079,0.057-0.167,0.104-0.265,0.138c-0.52,0.182-1.077-0.075-1.245-0.573
		c-3.13-9.289-3.758-18.336-1.868-26.89c1.869-8.448,3.706-14.723,5.459-18.652c1.793-4.016,4.095-7.109,6.844-9.189
		c0.398-0.334,1.057-0.266,1.383,0.149c0.326,0.414,0.234,1.019-0.204,1.35c-2.471,1.869-4.561,4.694-6.214,8.397
		c-1.7,3.81-3.495,9.961-5.335,18.282c-1.818,8.216-1.207,16.929,1.816,25.896C388.371,548.466,388.208,548.906,387.863,549.154z"/>
	
		<radialGradient id="SVGID_00000139268185030089853330000016898515249330275262_" cx="379.9224" cy="505.3531" r="66.2166" gradientTransform="matrix(0.9905 -0.0443 0.0867 0.9358 -38.2547 49.3059)" gradientUnits="userSpaceOnUse">
		<stop  offset="0" style="stop-color:#FDE370"/>
		<stop  offset="0.897" style="stop-color:#FBB90B"/>
		<stop  offset="1" style="stop-color:#FBAB0B"/>
	</radialGradient>
	<path style="fill:url(#SVGID_00000139268185030089853330000016898515249330275262_);" d="M454.431,475.201
		c-3.871-5.812-9.014-8.924-15.428-9.336c-14.606,0.421-21.795,11.177-21.568,32.27c-4.041-4.094-8.176-10.322-12.407-18.682
		c-3.594-10.371-7.216-18.603-10.867-24.697c-5.04-9.102-11.245-13.021-18.615-11.759c-12.436,3.86-13.008,16.108-1.715,36.745
		c4.641,7.021,6.677,12.565,6.108,16.632c-0.121,0.472-0.26,0.964-0.418,1.476l-0.056,0.061l-0.067-0.055
		c-6.629-1.841-16.254-8.036-28.874-18.586c-9.779-8.307-18.121-11.975-25.024-11.006c-1.989,0.283-3.861,0.95-5.615,2
		c-2.799,1.757-4.523,4.011-5.174,6.761c-0.798,3.378-0.004,7.501,2.381,12.369c4.309,7.424,14.249,14.81,29.822,22.158
		c8.088,4.263,13.612,8.388,16.574,12.375c-5.918-0.823-11.195-1.17-15.832-1.04c-10.915,1.188-18.006,3.682-21.274,7.481
		c-2.549,2.679-3.914,5.927-4.095,9.744c0.673,7.704,4.986,12.738,12.939,15.102c0.085,0.035,0.212,0.068,0.379,0.099
		c0.926,0.231,1.851,0.442,2.774,0.634c3.554,0.618,10.286,0.686,20.197,0.204c9.494-0.541,18.703,1.398,27.629,5.817
		c0.383,0.138,0.749,0.316,1.098,0.534c22.786,11.494,40.059,10.333,51.819-3.485c1.201-1.686,2.278-3.386,3.23-5.1
		c5.077-7.806,6.031-17.486,2.861-29.043c-3.022-12.185-0.234-23.599,8.365-34.244C457.024,484.762,457.309,479.62,454.431,475.201z
		 M417.382,498.895c0.037-0.04,0.136-0.084,0.297-0.13c0.119-0.044,0.263-0.051,0.43-0.019L417.382,498.895z"/>
	<path style="fill:#CC6600;" d="M446.996,524.545c-2.876-11.603-0.131-22.701,8.194-33.034c3.767-6.418,4.031-12.198,0.784-17.18
		l-0.002-0.004c-4.2-6.306-9.939-9.736-17.1-10.188c-14.531,0.439-22.33,10.302-23.193,29.321
		c-2.925-3.732-5.924-8.613-8.911-14.485c-3.618-10.44-7.318-18.844-10.989-24.969c-5.453-9.849-12.454-14.112-20.868-12.652
		c-4.891,1.518-8.193,4.275-9.815,8.195c-2.844,6.874-0.498,17.024,7.191,31.062c4.278,6.472,6.258,11.548,5.898,15.052
		c-6.283-2.287-15.183-8.225-26.465-17.655c-10.16-8.631-19.099-12.483-26.566-11.454c-2.226,0.319-4.352,1.077-6.327,2.261
		c-3.171,1.991-5.158,4.605-5.905,7.77c-0.884,3.742-0.024,8.304,2.57,13.589c4.482,7.722,14.776,15.422,30.577,22.877
		c5.571,2.936,9.924,5.827,12.962,8.605c-4.197-0.426-8.103-0.591-11.657-0.486c-11.498,1.251-18.822,3.879-22.378,8.017
		c-2.818,2.961-4.344,6.643-4.535,10.997c0.74,8.47,5.5,14.064,14.102,16.613c0.214,0.086,0.461,0.155,0.641,0.184
		c0.353,0.088,0.704,0.173,1.057,0.255c0.609,0.142,1.221,0.277,1.855,0.407c3.695,0.64,10.446,0.716,20.647,0.23
		c9.046-0.543,18.061,1.369,26.849,5.704c0.259,0.093,0.512,0.219,0.878,0.438c8.566,4.321,16.546,6.921,23.717,7.735
		c2.235,0.253,4.422,0.334,6.5,0.241c9.499-0.425,17.55-4.445,23.951-11.973c1.24-1.74,2.345-3.483,3.27-5.155
		C449.24,546.69,450.272,536.487,446.996,524.545z M362.504,525.526c0.697,0.944,1.207,1.867,1.518,2.747
		c0.318,0.904,1.358,1.431,2.322,1.173c0.957-0.268,1.473-1.23,1.15-2.145c-0.509-1.439-1.364-2.906-2.531-4.345
		c-3.121-4.191-8.929-8.543-17.282-12.943c-15.139-7.144-24.878-14.317-28.931-21.293c-2.198-4.485-2.954-8.272-2.249-11.257
		c0.553-2.341,1.999-4.218,4.411-5.732c1.536-0.92,3.195-1.512,4.927-1.76c6.302-0.879,14.208,2.675,23.499,10.57
		c11.737,9.811,20.746,15.801,27.514,18.29c-0.849,1.516-1.364,2.996-1.53,4.404c-0.11,0.939,0.616,1.821,1.631,1.968
		c0.494,0.056,0.966-0.057,1.33-0.315c0.386-0.274,0.628-0.676,0.682-1.134c0.154-1.298,0.76-2.738,1.799-4.275
		c0.076-0.11,0.14-0.234,0.189-0.371c0.033-0.093,0.061-0.172,0.087-0.236c0.108-0.146,0.19-0.307,0.243-0.48
		c0.167-0.542,0.314-1.058,0.474-1.725c0.633-4.525-1.435-10.314-6.303-17.669c-7.011-12.812-9.344-22.26-6.934-28.083
		c1.242-3.004,3.691-5.044,7.425-6.219c6.524-1.117,11.96,2.433,16.63,10.862c3.56,5.942,7.188,14.196,10.805,24.587
		c3.854,7.615,7.707,13.592,11.46,17.777c-6.164,2.419-10.748,6.793-13.634,13.01c-3.223,7.066-3.942,14.031-2.125,20.736
		c3.313,9.223,8.119,15.393,14.286,18.339c0.915,0.436,2.005,0.104,2.435-0.739c0.209-0.411,0.231-0.879,0.063-1.318
		c-0.166-0.438-0.502-0.796-0.947-1.01c-5.228-2.499-9.38-7.936-12.329-16.13c-1.581-5.852-0.911-12.042,1.988-18.398
		c2.757-5.941,7.252-9.928,13.313-11.84l0.775-0.163l0.103-0.03c1.435-0.457,3.031-0.802,4.743-1.025
		c0.994-0.13,1.659-1.001,1.482-1.943c-0.172-0.935-1.078-1.573-2.126-1.479c-1.248,0.162-2.457,0.386-3.603,0.667
		c0.132-19.14,6.59-28.631,19.686-29.012c5.82,0.373,10.379,3.144,13.928,8.474c2.519,3.865,2.254,8.293-0.776,13.487
		c-8.893,11.008-11.808,23.015-8.666,35.684l0.003,0.01c3.026,11.031,2.116,20.385-2.718,27.825
		c-0.912,1.642-1.945,3.279-3.047,4.835c-11.248,13.22-27.422,14.249-49.406,3.167c-0.466-0.29-0.963-0.533-1.263-0.625
		c-6.221-3.082-12.698-5.02-19.25-5.762c-2.857-0.323-5.774-0.422-8.738-0.289c-0.206,0.009-0.414,0.018-0.609,0.03
		c-9.735,0.472-16.371,0.415-19.707-0.166c-0.875-0.18-1.779-0.388-2.825-0.642c-0.036-0.004-0.063-0.015-0.165-0.05
		c-7.194-2.139-10.987-6.511-11.595-13.311c0.161-3.404,1.404-6.349,3.707-8.77c2.955-3.436,9.683-5.75,19.959-6.875
		C352.098,524.49,357.049,524.797,362.504,525.526z"/>
	
		<linearGradient id="SVGID_00000024691124384533404710000009728434547563457186_" gradientUnits="userSpaceOnUse" x1="430.1027" y1="471.9226" x2="440.1258" y2="490.7174" gradientTransform="matrix(0.9977 -0.0679 0.0679 0.9977 -32.1967 30.9905)">
		<stop  offset="0" style="stop-color:#FDFCBF"/>
		<stop  offset="0.0662" style="stop-color:#FDF4AA"/>
		<stop  offset="0.2318" style="stop-color:#FCE27A"/>
		<stop  offset="0.3967" style="stop-color:#FCD352"/>
		<stop  offset="0.558" style="stop-color:#FBC833"/>
		<stop  offset="0.7146" style="stop-color:#FBC01D"/>
		<stop  offset="0.8644" style="stop-color:#FBBB10"/>
		<stop  offset="1" style="stop-color:#FBB90B"/>
	</linearGradient>
	<path style="fill:url(#SVGID_00000024691124384533404710000009728434547563457186_);" d="M442.87,489.284
		c-7.016,6.603-15.982,8.865-20.026,5.051c-4.044-3.814-2.66-15.173,4.356-21.777c7.016-6.603,16.595-4.935,20.638-1.122
		C451.882,475.251,449.887,482.681,442.87,489.284z"/>
	
		<linearGradient id="SVGID_00000028287882709806507940000003086244281458512521_" gradientUnits="userSpaceOnUse" x1="367.5671" y1="459.9627" x2="408.7464" y2="465.6812" gradientTransform="matrix(0.9977 -0.0679 0.0679 0.9977 -32.1967 30.9905)">
		<stop  offset="0" style="stop-color:#FDFCBF"/>
		<stop  offset="0.0662" style="stop-color:#FDF4AA"/>
		<stop  offset="0.2318" style="stop-color:#FCE27A"/>
		<stop  offset="0.3967" style="stop-color:#FCD352"/>
		<stop  offset="0.558" style="stop-color:#FBC833"/>
		<stop  offset="0.7146" style="stop-color:#FBC01D"/>
		<stop  offset="0.8644" style="stop-color:#FBBB10"/>
		<stop  offset="1" style="stop-color:#FBB90B"/>
	</linearGradient>
	<path style="fill:url(#SVGID_00000028287882709806507940000003086244281458512521_);" d="M389.206,458.226
		c0.711,7.675-0.205,28.512-5.506,28.749c-5.301,0.237-15.047-19.925-15.758-27.6c-0.711-7.675,3.208-14.197,8.509-14.434
		C381.752,444.704,388.494,450.551,389.206,458.226z"/>
	
		<linearGradient id="SVGID_00000135684328843060017660000012446753456979286691_" gradientUnits="userSpaceOnUse" x1="186.019" y1="491.6396" x2="228.3465" y2="497.5176" gradientTransform="matrix(0.7776 -0.6287 0.6287 0.7776 -131.1934 232.1915)">
		<stop  offset="0" style="stop-color:#FDFCBF"/>
		<stop  offset="0.0662" style="stop-color:#FDF4AA"/>
		<stop  offset="0.2318" style="stop-color:#FCE27A"/>
		<stop  offset="0.3967" style="stop-color:#FCD352"/>
		<stop  offset="0.558" style="stop-color:#FBC833"/>
		<stop  offset="0.7146" style="stop-color:#FBC01D"/>
		<stop  offset="0.8644" style="stop-color:#FBBB10"/>
		<stop  offset="1" style="stop-color:#FBB90B"/>
	</linearGradient>
	<path style="fill:url(#SVGID_00000135684328843060017660000012446753456979286691_);" d="M343.088,479.674
		c7.242,8.377,14.193,23.271,8.884,27.275c-5.308,4.004-22.22-5.383-29.461-13.76c-7.242-8.377-7.456-17.429-2.147-21.433
		C325.672,467.752,335.846,471.297,343.088,479.674z"/>
	
		<linearGradient id="SVGID_00000065762768492752358540000014713101276833881763_" gradientUnits="userSpaceOnUse" x1="386.6084" y1="533.3906" x2="395.4755" y2="491.1296" gradientTransform="matrix(0.9918 0.1275 -0.1275 0.9918 32.3787 -16.4905)">
		<stop  offset="0" style="stop-color:#FDFCBF"/>
		<stop  offset="0.0662" style="stop-color:#FDF4AA"/>
		<stop  offset="0.2318" style="stop-color:#FCE27A"/>
		<stop  offset="0.3967" style="stop-color:#FCD352"/>
		<stop  offset="0.558" style="stop-color:#FBC833"/>
		<stop  offset="0.7146" style="stop-color:#FBC01D"/>
		<stop  offset="0.8644" style="stop-color:#FBBB10"/>
		<stop  offset="1" style="stop-color:#FBB90B"/>
	</linearGradient>
	<path style="fill:url(#SVGID_00000065762768492752358540000014713101276833881763_);" d="M380.079,556.97
		c-4.233-2.1-32.301-1.466-40.984-2.684c-8.684-1.217-14.186-8.44-14.325-14.628c-0.173-7.69,10.515-15.11,19.201-13.915
		C371.122,529.478,384.592,559.208,380.079,556.97z"/>
	
		<linearGradient id="SVGID_00000171702545464289207940000007658934669160018066_" gradientUnits="userSpaceOnUse" x1="447.6126" y1="484.8504" x2="486.1132" y2="495.8506" gradientTransform="matrix(0.9821 0.1887 -0.1887 0.9821 52.1262 -47.5967)">
		<stop  offset="0" style="stop-color:#FDFCBF"/>
		<stop  offset="0.0662" style="stop-color:#FDF4AA"/>
		<stop  offset="0.2318" style="stop-color:#FCE27A"/>
		<stop  offset="0.3967" style="stop-color:#FCD352"/>
		<stop  offset="0.558" style="stop-color:#FBC833"/>
		<stop  offset="0.7146" style="stop-color:#FBC01D"/>
		<stop  offset="0.8644" style="stop-color:#FBBB10"/>
		<stop  offset="1" style="stop-color:#FBB90B"/>
	</linearGradient>
	<path style="fill:url(#SVGID_00000171702545464289207940000007658934669160018066_);" d="M433.814,525.361
		c-2.389,12.986-9.253,22.038-17.348,20.422c-8.095-1.616-15.535-13.944-13.146-26.93c2.389-12.986,14.081-19.178,22.176-17.562
		C433.592,502.907,436.204,512.376,433.814,525.361z"/>
	
		<linearGradient id="SVGID_00000101091126352317649640000002670596589654922914_" gradientUnits="userSpaceOnUse" x1="399.476" y1="568.9719" x2="404.0269" y2="533.8053" gradientTransform="matrix(0.9977 -0.0679 0.0679 0.9977 -32.1967 30.9905)">
		<stop  offset="0" style="stop-color:#FDFCBF"/>
		<stop  offset="0.0662" style="stop-color:#FDF4AA"/>
		<stop  offset="0.2318" style="stop-color:#FCE27A"/>
		<stop  offset="0.3967" style="stop-color:#FCD352"/>
		<stop  offset="0.558" style="stop-color:#FBC833"/>
		<stop  offset="0.7146" style="stop-color:#FBC01D"/>
		<stop  offset="0.8644" style="stop-color:#FBBB10"/>
		<stop  offset="1" style="stop-color:#FBB90B"/>
	</linearGradient>
	<path style="fill:url(#SVGID_00000101091126352317649640000002670596589654922914_);" d="M441.892,548.457
		c0.588,6.344-11.869,18.961-25.915,19.589c-14.046,0.629-44.48-13.724-45.068-20.068c-0.588-6.344,17.325,12.14,41.773,11.843
		C441.357,559.474,441.304,542.114,441.892,548.457z"/>
	
		<radialGradient id="SVGID_00000088101330171341601010000008253346734261007493_" cx="396.1777" cy="506.1227" r="66.2165" gradientTransform="matrix(-0.9905 -0.0443 -0.0867 0.9358 1054.4222 49.3059)" gradientUnits="userSpaceOnUse">
		<stop  offset="0" style="stop-color:#FDE370"/>
		<stop  offset="0.897" style="stop-color:#FBB90B"/>
		<stop  offset="1" style="stop-color:#FBAB0B"/>
	</radialGradient>
	<path style="fill:url(#SVGID_00000088101330171341601010000008253346734261007493_);" d="M546.422,490.629
		c8.598,10.645,11.387,22.059,8.365,34.244c-3.169,11.556-2.215,21.237,2.861,29.043c0.952,1.714,2.028,3.414,3.23,5.1
		c11.76,13.818,29.033,14.979,51.819,3.485c0.349-0.218,0.715-0.396,1.099-0.534c8.925-4.42,18.135-6.359,27.629-5.817
		c9.911,0.482,16.643,0.415,20.197-0.204c0.923-0.192,1.847-0.403,2.774-0.634c0.168-0.031,0.294-0.065,0.379-0.099
		c7.953-2.365,12.266-7.399,12.939-15.103c-0.181-3.817-1.546-7.064-4.095-9.744c-3.268-3.799-10.359-6.293-21.274-7.481
		c-4.637-0.13-9.914,0.217-15.832,1.04c2.961-3.987,8.486-8.112,16.574-12.375c15.573-7.348,25.514-14.734,29.822-22.158
		c2.385-4.868,3.178-8.991,2.381-12.369c-0.65-2.749-2.375-5.003-5.174-6.761c-1.754-1.05-3.626-1.717-5.615-2
		c-6.904-0.97-15.245,2.699-25.024,11.005c-12.62,10.55-22.245,16.746-28.874,18.586l-0.067,0.055l-0.056-0.061
		c-0.158-0.512-0.298-1.004-0.418-1.476c-0.569-4.067,1.467-9.611,6.108-16.632c11.292-20.636,10.721-32.884-1.715-36.745
		c-7.37-1.262-13.575,2.657-18.615,11.759c-3.65,6.094-7.272,14.326-10.867,24.697c-4.231,8.361-8.366,14.588-12.407,18.682
		c0.228-21.093-6.962-31.849-21.568-32.27c-6.415,0.413-11.558,3.525-15.428,9.336C542.691,479.62,542.975,484.762,546.422,490.629z
		 M581.891,498.746c0.168-0.031,0.311-0.025,0.43,0.019c0.16,0.046,0.259,0.089,0.297,0.13L581.891,498.746z"/>
	<path style="fill:#CC6600;" d="M556.074,554.861c0.925,1.672,2.03,3.415,3.27,5.155c6.401,7.528,14.452,11.548,23.951,11.973
		c2.078,0.094,4.265,0.012,6.5-0.241c7.171-0.814,15.151-3.414,23.717-7.735c0.366-0.219,0.619-0.344,0.878-0.438
		c8.787-4.335,17.802-6.247,26.849-5.704c10.2,0.486,16.952,0.411,20.647-0.23c0.634-0.131,1.247-0.265,1.855-0.407
		c0.352-0.082,0.703-0.168,1.057-0.255c0.18-0.029,0.427-0.098,0.641-0.184c8.602-2.548,13.362-8.143,14.102-16.613
		c-0.191-4.354-1.717-8.035-4.535-10.997c-3.556-4.138-10.881-6.765-22.378-8.017c-3.554-0.105-7.46,0.06-11.657,0.486
		c3.038-2.778,7.391-5.669,12.962-8.605c15.801-7.455,26.095-15.155,30.577-22.877c2.594-5.285,3.454-9.848,2.57-13.589
		c-0.748-3.165-2.734-5.778-5.905-7.77c-1.976-1.184-4.102-1.942-6.327-2.26c-7.468-1.029-16.406,2.823-26.566,11.454
		c-11.281,9.431-20.182,15.368-26.465,17.655c-0.359-3.504,1.621-8.58,5.898-15.052c7.689-14.038,10.035-24.188,7.191-31.062
		c-1.621-3.92-4.923-6.678-9.815-8.195c-8.414-1.46-15.414,2.803-20.868,12.652c-3.671,6.125-7.371,14.53-10.989,24.969
		c-2.986,5.872-5.986,10.753-8.911,14.485c-0.864-19.019-8.663-28.882-23.194-29.321c-7.161,0.452-12.901,3.882-17.1,10.188
		l-0.002,0.004c-3.247,4.982-2.983,10.762,0.784,17.18c8.325,10.333,11.07,21.431,8.194,33.034
		C549.728,536.487,550.76,546.69,556.074,554.861z M652.216,524.61c10.276,1.125,17.004,3.439,19.959,6.875
		c2.303,2.421,3.545,5.366,3.707,8.77c-0.608,6.8-4.401,11.172-11.595,13.311c-0.102,0.035-0.129,0.046-0.165,0.05
		c-1.046,0.254-1.949,0.462-2.825,0.642c-3.336,0.582-9.971,0.638-19.707,0.166c-0.195-0.012-0.403-0.021-0.609-0.03
		c-2.964-0.133-5.881-0.035-8.738,0.289c-6.552,0.742-13.029,2.68-19.25,5.762c-0.3,0.092-0.797,0.335-1.263,0.625
		c-21.984,11.082-38.158,10.053-49.406-3.167c-1.103-1.556-2.135-3.193-3.047-4.835c-4.834-7.44-5.744-16.794-2.718-27.825
		l0.003-0.01c3.142-12.67,0.226-24.676-8.666-35.685c-3.03-5.194-3.295-9.622-0.776-13.487c3.549-5.33,8.108-8.102,13.928-8.474
		c13.097,0.38,19.554,9.872,19.687,29.012c-1.146-0.281-2.355-0.505-3.603-0.667c-1.048-0.094-1.953,0.544-2.126,1.479
		c-0.176,0.941,0.489,1.813,1.482,1.943c1.712,0.223,3.308,0.568,4.743,1.025l0.103,0.031l0.775,0.162
		c6.062,1.912,10.556,5.899,13.313,11.84c2.9,6.356,3.569,12.546,1.988,18.398c-2.95,8.194-7.101,13.632-12.329,16.13
		c-0.444,0.214-0.78,0.572-0.946,1.01c-0.168,0.439-0.145,0.907,0.063,1.318c0.43,0.843,1.52,1.175,2.435,0.739
		c6.167-2.946,10.973-9.117,14.286-18.339c1.817-6.704,1.098-13.67-2.125-20.736c-2.886-6.217-7.47-10.591-13.634-13.01
		c3.753-4.185,7.605-10.162,11.46-17.777c3.618-10.391,7.246-18.645,10.805-24.587c4.67-8.43,10.106-11.979,16.63-10.862
		c3.734,1.175,6.183,3.215,7.425,6.219c2.41,5.823,0.076,15.271-6.935,28.083c-4.868,7.354-6.936,13.144-6.303,17.669
		c0.16,0.668,0.307,1.184,0.474,1.725c0.053,0.174,0.135,0.334,0.243,0.48c0.026,0.064,0.054,0.143,0.087,0.236
		c0.049,0.137,0.113,0.261,0.189,0.371c1.039,1.537,1.645,2.977,1.799,4.275c0.054,0.457,0.296,0.859,0.682,1.133
		c0.364,0.259,0.836,0.371,1.33,0.315c1.015-0.147,1.741-1.029,1.631-1.968c-0.167-1.409-0.681-2.888-1.53-4.404
		c6.768-2.49,15.777-8.48,27.514-18.291c9.291-7.894,17.197-11.448,23.499-10.569c1.732,0.248,3.391,0.84,4.927,1.76
		c2.412,1.514,3.858,3.391,4.411,5.732c0.705,2.985-0.052,6.772-2.249,11.257c-4.053,6.976-13.792,14.15-28.931,21.294
		c-8.353,4.4-14.161,8.752-17.281,12.943c-1.167,1.439-2.022,2.905-2.531,4.345c-0.323,0.915,0.193,1.877,1.15,2.145
		c0.965,0.258,2.005-0.269,2.322-1.173c0.311-0.88,0.822-1.803,1.518-2.747C642.951,524.797,647.902,524.49,652.216,524.61z"/>
	
		<linearGradient id="SVGID_00000061444044490056562870000012644562906216140945_" gradientUnits="userSpaceOnUse" x1="446.233" y1="473.0204" x2="456.2561" y2="491.8152" gradientTransform="matrix(-0.9977 -0.0679 -0.0679 0.9977 1048.3644 30.9905)">
		<stop  offset="0" style="stop-color:#FDFCBF"/>
		<stop  offset="0.0662" style="stop-color:#FDF4AA"/>
		<stop  offset="0.2318" style="stop-color:#FCE27A"/>
		<stop  offset="0.3967" style="stop-color:#FCD352"/>
		<stop  offset="0.558" style="stop-color:#FBC833"/>
		<stop  offset="0.7146" style="stop-color:#FBC01D"/>
		<stop  offset="0.8644" style="stop-color:#FBBB10"/>
		<stop  offset="1" style="stop-color:#FBB90B"/>
	</linearGradient>
	<path style="fill:url(#SVGID_00000061444044490056562870000012644562906216140945_);" d="M557.13,489.284
		c7.016,6.603,15.982,8.865,20.026,5.051c4.044-3.814,2.66-15.173-4.356-21.777c-7.016-6.603-16.595-4.935-20.638-1.121
		C548.118,475.251,550.113,482.681,557.13,489.284z"/>
	
		<linearGradient id="SVGID_00000023981649015152380850000011170426583254184064_" gradientUnits="userSpaceOnUse" x1="383.6974" y1="461.0606" x2="424.8767" y2="466.7791" gradientTransform="matrix(-0.9977 -0.0679 -0.0679 0.9977 1048.3644 30.9905)">
		<stop  offset="0" style="stop-color:#FDFCBF"/>
		<stop  offset="0.0662" style="stop-color:#FDF4AA"/>
		<stop  offset="0.2318" style="stop-color:#FCE27A"/>
		<stop  offset="0.3967" style="stop-color:#FCD352"/>
		<stop  offset="0.558" style="stop-color:#FBC833"/>
		<stop  offset="0.7146" style="stop-color:#FBC01D"/>
		<stop  offset="0.8644" style="stop-color:#FBBB10"/>
		<stop  offset="1" style="stop-color:#FBB90B"/>
	</linearGradient>
	<path style="fill:url(#SVGID_00000023981649015152380850000011170426583254184064_);" d="M610.794,458.226
		c-0.712,7.675,0.205,28.512,5.506,28.749c5.301,0.237,15.047-19.925,15.758-27.6c0.711-7.675-3.208-14.197-8.509-14.434
		C618.248,444.704,611.505,450.551,610.794,458.226z"/>
	
		<linearGradient id="SVGID_00000155851977792149160790000000040919468206077057_" gradientUnits="userSpaceOnUse" x1="198.5918" y1="501.805" x2="240.9194" y2="507.683" gradientTransform="matrix(-0.7776 -0.6287 -0.6287 0.7776 1147.361 232.1915)">
		<stop  offset="0" style="stop-color:#FDFCBF"/>
		<stop  offset="0.0662" style="stop-color:#FDF4AA"/>
		<stop  offset="0.2318" style="stop-color:#FCE27A"/>
		<stop  offset="0.3967" style="stop-color:#FCD352"/>
		<stop  offset="0.558" style="stop-color:#FBC833"/>
		<stop  offset="0.7146" style="stop-color:#FBC01D"/>
		<stop  offset="0.8644" style="stop-color:#FBBB10"/>
		<stop  offset="1" style="stop-color:#FBB90B"/>
	</linearGradient>
	<path style="fill:url(#SVGID_00000155851977792149160790000000040919468206077057_);" d="M656.912,479.674
		c-7.242,8.377-14.193,23.271-8.884,27.275c5.308,4.004,22.219-5.383,29.461-13.76c7.242-8.377,7.456-17.429,2.147-21.433
		C674.328,467.752,664.154,471.297,656.912,479.674z"/>
	
		<linearGradient id="SVGID_00000021101219097153237930000004697890398158259079_" gradientUnits="userSpaceOnUse" x1="402.6448" y1="531.3292" x2="411.5119" y2="489.0682" gradientTransform="matrix(-0.9918 0.1275 0.1275 0.9918 983.789 -16.4905)">
		<stop  offset="0" style="stop-color:#FDFCBF"/>
		<stop  offset="0.0662" style="stop-color:#FDF4AA"/>
		<stop  offset="0.2318" style="stop-color:#FCE27A"/>
		<stop  offset="0.3967" style="stop-color:#FCD352"/>
		<stop  offset="0.558" style="stop-color:#FBC833"/>
		<stop  offset="0.7146" style="stop-color:#FBC01D"/>
		<stop  offset="0.8644" style="stop-color:#FBBB10"/>
		<stop  offset="1" style="stop-color:#FBB90B"/>
	</linearGradient>
	<path style="fill:url(#SVGID_00000021101219097153237930000004697890398158259079_);" d="M619.92,556.97
		c4.233-2.1,32.301-1.466,40.985-2.684c8.684-1.217,14.186-8.44,14.325-14.628c0.173-7.69-10.515-15.11-19.201-13.915
		C628.878,529.478,615.407,559.208,619.92,556.97z"/>
	
		<linearGradient id="SVGID_00000101824599422281891350000007717671912491297954_" gradientUnits="userSpaceOnUse" x1="463.4888" y1="481.8001" x2="501.9894" y2="492.8003" gradientTransform="matrix(-0.9821 0.1887 0.1887 0.9821 964.0414 -47.5967)">
		<stop  offset="0" style="stop-color:#FDFCBF"/>
		<stop  offset="0.0662" style="stop-color:#FDF4AA"/>
		<stop  offset="0.2318" style="stop-color:#FCE27A"/>
		<stop  offset="0.3967" style="stop-color:#FCD352"/>
		<stop  offset="0.558" style="stop-color:#FBC833"/>
		<stop  offset="0.7146" style="stop-color:#FBC01D"/>
		<stop  offset="0.8644" style="stop-color:#FBBB10"/>
		<stop  offset="1" style="stop-color:#FBB90B"/>
	</linearGradient>
	<path style="fill:url(#SVGID_00000101824599422281891350000007717671912491297954_);" d="M566.186,525.361
		c2.389,12.986,9.253,22.038,17.348,20.422c8.095-1.616,15.535-13.944,13.146-26.93c-2.389-12.986-14.081-19.179-22.176-17.562
		C566.408,502.907,563.796,512.376,566.186,525.361z"/>
	
		<linearGradient id="SVGID_00000057117706854377703190000012403823676099688123_" gradientUnits="userSpaceOnUse" x1="415.6062" y1="570.0698" x2="420.1572" y2="534.9031" gradientTransform="matrix(-0.9977 -0.0679 -0.0679 0.9977 1048.3644 30.9905)">
		<stop  offset="0" style="stop-color:#FDFCBF"/>
		<stop  offset="0.0662" style="stop-color:#FDF4AA"/>
		<stop  offset="0.2318" style="stop-color:#FCE27A"/>
		<stop  offset="0.3967" style="stop-color:#FCD352"/>
		<stop  offset="0.558" style="stop-color:#FBC833"/>
		<stop  offset="0.7146" style="stop-color:#FBC01D"/>
		<stop  offset="0.8644" style="stop-color:#FBBB10"/>
		<stop  offset="1" style="stop-color:#FBB90B"/>
	</linearGradient>
	<path style="fill:url(#SVGID_00000057117706854377703190000012403823676099688123_);" d="M558.107,548.458
		c-0.588,6.344,11.869,18.961,25.915,19.589c14.046,0.629,44.48-13.724,45.068-20.068c0.588-6.344-17.325,12.14-41.773,11.843
		C558.643,559.474,558.696,542.114,558.107,548.458z"/>
</g>
</svg>
