<?xml version="1.0" encoding="utf-8"?>
<!-- Generator: Adobe Illustrator 27.5.0, SVG Export Plug-In . SVG Version: 6.00 Build 0)  -->
<svg version="1.1" id="Layer_1" xmlns="http://www.w3.org/2000/svg" xmlns:xlink="http://www.w3.org/1999/xlink" x="0px" y="0px"
	 viewBox="0 0 1000 1000" style="enable-background:new 0 0 1000 1000;" xml:space="preserve">
<g>
	<radialGradient id="SVGID_1_" cx="500.0007" cy="489.4147" r="435.5355" gradientUnits="userSpaceOnUse">
		<stop  offset="0" style="stop-color:#FDE370"/>
		<stop  offset="0.8545" style="stop-color:#FBB90B"/>
		<stop  offset="1" style="stop-color:#FFA80B"/>
	</radialGradient>
	<path style="fill:url(#SVGID_1_);" d="M935.954,489.499c0-23.871-1.673-47.017-5.02-69.438
		c-9.482-63.916-32.516-122.2-69.104-174.85c-15.505-22.198-33.353-43.392-53.542-63.582
		C723.178,96.742,620.444,54.298,500.084,54.298c-120.471,0-223.261,42.444-308.372,127.331
		c-85.11,84.999-127.665,187.622-127.665,307.87c0,75.517,16.788,144.063,50.363,205.637c19.186,33.799,41.607,64.418,67.263,91.859
		c3.235,3.346,6.581,6.749,10.039,10.207c85.11,84.887,187.901,127.331,308.372,127.331c94.034,0,177.304-25.879,249.809-77.637
		c8.254-5.912,16.397-12.159,24.429-18.74c48.523-39.376,88.178-88.624,118.965-147.744c18.74-37.926,31.289-78.418,37.647-121.475
		C934.281,536.516,935.954,513.369,935.954,489.499z"/>
	
		<linearGradient id="SVGID_00000170959370200529597640000014174084761879024263_" gradientUnits="userSpaceOnUse" x1="280.8369" y1="822.9572" x2="332.5491" y2="766.8439" gradientTransform="matrix(-0.1092 -0.994 0.994 -0.1092 66.2161 1135.4117)">
		<stop  offset="0" style="stop-color:#FDF2C2"/>
		<stop  offset="1" style="stop-color:#FBB00B"/>
	</linearGradient>
	<path style="fill:url(#SVGID_00000170959370200529597640000014174084761879024263_);" d="M914.883,530.499
		c12.813-26.286-7.737,125.342-81.167,216.902c-73.429,91.56-175.525,145.899-204.112,139.737
		c-10.265-2.212,100.316-52.576,173.745-144.135C876.779,651.442,909.071,542.421,914.883,530.499z"/>
	
		<linearGradient id="SVGID_00000161595253836247873810000010371400555517468049_" gradientUnits="userSpaceOnUse" x1="178.7481" y1="806.6511" x2="228.6504" y2="752.5017">
		<stop  offset="0" style="stop-color:#FDF2C2"/>
		<stop  offset="1" style="stop-color:#FBB00B"/>
	</linearGradient>
	<path style="fill:url(#SVGID_00000161595253836247873810000010371400555517468049_);" d="M406.548,893.35
		c24.73,15.607-123.747-21.382-206.739-104.373C116.818,705.986,73.956,598.566,83.204,570.823
		c3.321-9.962,39.865,99.666,122.857,182.657C289.051,836.472,395.332,886.271,406.548,893.35z"/>
	
		<linearGradient id="SVGID_00000097478172618293918650000014897761556392881071_" gradientUnits="userSpaceOnUse" x1="501.5621" y1="126.2792" x2="510.1335" y2="863.4232">
		<stop  offset="0" style="stop-color:#FDF2C2"/>
		<stop  offset="0.6995" style="stop-color:#FBBE0B"/>
	</linearGradient>
	<path style="fill:url(#SVGID_00000097478172618293918650000014897761556392881071_);" d="M868.295,418.185
		c0,166.048-154.563-20.486-355.229-20.486s-371.45,186.534-371.45,20.486s162.673-300.656,363.339-300.656
		C705.623,117.529,868.295,252.138,868.295,418.185z"/>
	<path style="fill:#D68607;" d="M366.396,293.113c0,0,59.23,110.971-138.884,115.056
		C227.512,408.169,352.099,380.256,366.396,293.113z"/>
	<path style="fill:#D68607;" d="M660.045,290.827c0,0-58.432,118.134,138.458,113.053
		C798.503,403.88,667.667,378.474,660.045,290.827z"/>
	
		<radialGradient id="SVGID_00000018952065995387815700000011132743882223699135_" cx="804.7672" cy="539.5161" r="126.7058" gradientUnits="userSpaceOnUse">
		<stop  offset="0" style="stop-color:#FD7303"/>
		<stop  offset="0.8871" style="stop-color:#FBBB0A"/>
	</radialGradient>
	
		<ellipse style="fill:url(#SVGID_00000018952065995387815700000011132743882223699135_);" cx="807.209" cy="550.171" rx="105.163" ry="106.966"/>
	
		<linearGradient id="SVGID_00000122709173710932344160000010033997659434936980_" gradientUnits="userSpaceOnUse" x1="808.283" y1="448.2633" x2="812.0633" y2="567.4797">
		<stop  offset="0" style="stop-color:#FDDC97"/>
		<stop  offset="0.419" style="stop-color:#FB950B"/>
	</linearGradient>
	<path style="fill:url(#SVGID_00000122709173710932344160000010033997659434936980_);" d="M893.133,484.523
		c0.917,11.31-48.197-3.404-86.462-3.404c-38.265,0-74.889,19.063-78.973,9.531c-13.491-31.479,42.181-48.69,80.445-49.013
		C859.152,441.207,891.09,459.333,893.133,484.523z"/>
	
		<radialGradient id="SVGID_00000170241587997718283730000004630870483055485084_" cx="199.619" cy="541.5645" r="126.7058" gradientUnits="userSpaceOnUse">
		<stop  offset="0" style="stop-color:#FD7303"/>
		<stop  offset="0.8871" style="stop-color:#FBBB0A"/>
	</radialGradient>
	
		<ellipse style="fill:url(#SVGID_00000170241587997718283730000004630870483055485084_);" cx="202.061" cy="552.22" rx="105.163" ry="106.966"/>
	
		<linearGradient id="SVGID_00000081640764142491155000000000235834900103025067_" gradientUnits="userSpaceOnUse" x1="191.6801" y1="448.8403" x2="195.4604" y2="568.0565">
		<stop  offset="0" style="stop-color:#FDDC97"/>
		<stop  offset="0.419" style="stop-color:#FB950B"/>
	</linearGradient>
	<path style="fill:url(#SVGID_00000081640764142491155000000000235834900103025067_);" d="M276.53,485.1
		c0.917,11.31-48.197-3.404-86.462-3.404c-38.265,0-74.889,19.063-78.973,9.531c-13.491-31.479,42.181-48.69,80.445-49.013
		C242.549,441.784,274.488,459.91,276.53,485.1z"/>
	<path style="fill:#D68607;" d="M235.785,489.022c0,0-74.992,238.445-73.971,273.166l35.742,46.976l108.248-368.656L235.785,489.022
		z"/>
	<path style="fill:#CC6600;" d="M934.725,419.499c-9.528-64.216-32.994-123.593-69.749-176.485
		c-15.57-22.285-33.731-43.852-53.979-64.103c-85.459-85.233-190.065-128.45-310.913-128.45
		c-120.959,0-225.622,43.217-311.084,128.45C103.543,264.257,60.213,368.754,60.213,489.501c0,75.79,17.088,145.566,50.809,207.427
		l0.052,0.099c19.244,33.904,42.065,65.065,67.84,92.63c3.142,3.255,6.536,6.708,10.089,10.265
		c85.462,85.229,190.125,128.444,311.081,128.444c94.415,0,179.213-26.363,252.041-78.356c8.228-5.89,16.51-12.241,24.614-18.871
		c48.705-39.526,89.072-89.659,119.989-149.024c18.829-38.115,31.613-79.368,37.997-122.611c3.36-22.484,5.063-46.037,5.063-70.002
		C939.787,465.53,938.084,441.978,934.725,419.499z M932.117,489.501c0,23.578-1.674,46.749-4.975,68.872
		c-6.27,42.457-18.806,82.928-37.254,120.271c-30.402,58.374-70.1,107.679-117.995,146.547
		c-7.945,6.505-16.097,12.756-24.228,18.578c-71.5,51.044-154.799,76.925-247.581,76.925c-118.855,0-221.694-42.461-305.66-126.204
		c-3.492-3.498-6.843-6.907-9.948-10.12c-25.328-27.083-47.773-57.734-66.713-91.103c-33.096-60.704-49.879-129.263-49.879-203.766
		c0-118.634,42.573-221.304,126.536-305.158c83.971-83.747,186.81-126.21,305.664-126.21c118.742,0,221.526,42.462,305.493,126.206
		c19.923,19.921,37.792,41.138,53.106,63.059c36.073,51.909,59.105,110.193,68.459,173.232
		C930.443,442.746,932.117,465.918,932.117,489.501z"/>
	<path style="fill:#66CCFF;" d="M390.533,903.716c-1.627-2.278-4.068-4.8-7.323-7.566c-4.556-4.068-7.16-6.427-7.81-7.079
		c-12.693-11.39-23.269-23.594-31.731-36.612c-3.417-4.557-6.428-9.357-9.031-14.401c-6.021-11.391-10.17-23.92-12.448-37.589
		c-0.813-4.556-1.383-9.275-1.709-14.156c-0.163-0.813-0.244-1.709-0.244-2.685c-0.976-11.879-1.221-24.652-0.733-38.321
		c1.465-51.095,6.916-98.446,16.353-142.055c11.879-54.837,30.023-103.735,54.431-146.693
		c-39.867-25.222-84.534-17.9-134.001,21.967c-1.628,1.627-3.336,3.335-5.126,5.125c-9.763,22.618-18.387,45.806-25.873,69.564
		c-2.116,6.02-3.987,12.204-5.614,18.55c-1.302,4.068-2.441,8.136-3.417,12.204c-13.506,50.281-21.886,103.165-25.14,158.653
		c-0.163,3.905-0.326,7.81-0.488,11.716c0,0.325,0,0.569,0,0.732c-0.326,7.159-0.57,14.563-0.733,22.211
		c-0.651,6.509-1.464,12.693-2.44,18.551c-0.651,2.278-1.221,4.474-1.709,6.59c-11.553,29.941-28.314,51.989-50.281,66.146
		c-6.184,4.556-10.252,9.031-12.204,13.425c-4.068,8.462-0.082,15.784,11.96,21.967c7.485,3.905,17.411,7.892,29.778,11.96
		c67.854,23.594,132.862,32.382,195.021,26.361c26.361-3.417,38.89-11.798,37.588-25.14
		C396.635,912.422,394.275,907.947,390.533,903.716z"/>
	<path style="fill:#4DBAF0;" d="M320.482,786.313c-1.79-1.79-4.313-2.441-7.567-1.953c-3.255,0.326-6.021,1.628-8.299,3.905
		c-2.929,2.929-5.777,8.218-8.543,15.865c-5.37,11.39-12.936,17.086-22.7,17.086c-5.695,0.325-10.821-1.871-15.377-6.59
		c-3.906-4.068-7.079-9.356-9.52-15.866c-2.766-6.509-4.475-10.332-5.125-11.471c-2.604-4.068-5.614-6.346-9.031-6.834
		c-1.464,0-3.336,0.325-5.614,0.977c-3.58,0.976-5.533,1.464-5.858,1.464c-4.556,0.814-9.113,0.082-13.669-2.197
		c-4.394-2.115-7.974-5.289-10.74-9.52c-2.603-3.417-5.207-9.031-7.81-16.841c0,0.325,0,0.569,0,0.732
		c-0.326,7.16-0.57,14.564-0.732,22.212c-0.651,6.509-1.465,12.692-2.441,18.55c-0.651,2.278-1.221,4.475-1.709,6.59
		c-11.553,29.941-28.313,51.989-50.281,66.146c-6.183,4.556-10.252,9.031-12.204,13.425c-4.068,8.462-0.082,15.784,11.96,21.967
		c7.485,3.905,17.411,7.892,29.778,11.96c67.855,23.594,132.862,32.382,195.021,26.361c26.361-3.417,38.89-11.798,37.588-25.141
		c-0.976-4.719-3.336-9.194-7.078-13.424c-1.627-2.278-4.068-4.8-7.323-7.566c-4.556-4.068-7.16-6.427-7.81-7.079
		c-12.693-11.39-23.269-23.594-31.731-36.612c-3.417-4.556-6.428-9.356-9.031-14.401c-6.021-11.391-10.17-23.92-12.448-37.589
		C321.377,795.914,320.807,791.195,320.482,786.313z"/>
	
		<radialGradient id="SVGID_00000072277723768991190360000007034891958115766403_" cx="327.5307" cy="474.5617" r="74.6057" gradientUnits="userSpaceOnUse">
		<stop  offset="0.4916" style="stop-color:#704104"/>
		<stop  offset="0.5514" style="stop-color:#6D3E04"/>
		<stop  offset="0.5965" style="stop-color:#633604"/>
		<stop  offset="0.6367" style="stop-color:#532804"/>
		<stop  offset="0.6535" style="stop-color:#4A2004"/>
	</radialGradient>
	<path style="fill:url(#SVGID_00000072277723768991190360000007034891958115766403_);" d="M235.785,489.022
		c5.532-3.255,11.146-6.183,16.841-8.787c0-0.163,0.163-0.244,0.488-0.244c0.976-0.651,2.034-1.139,3.173-1.464
		c49.467-39.867,94.134-47.189,134-21.967c15.947,10.089,29.616,17.817,41.006,23.188
		C360.511,383.253,295.341,386.345,235.785,489.022z"/>
	<path style="fill:#98E6F9;" d="M225.29,553.215c-2.116,6.021-3.987,12.204-5.614,18.55c-1.302,4.068-2.441,8.136-3.417,12.204
		c-0.814,5.37-0.976,11.31-0.488,17.818c0.976,12.041,3.091,19.119,6.346,21.235c3.905,2.604,8.624,2.36,14.156-0.732
		c5.858-3.255,12.041-10.17,18.551-20.747c7.159-11.553,12.936-19.038,17.329-22.455c3.743-2.929,6.997-3.58,9.763-1.952
		c1.302,1.302,1.953,3.987,1.953,8.055c-0.651,7.811,0.325,16.354,2.929,25.628c2.929,9.926,7.404,15.214,13.424,15.865
		c6.672,0.488,11.96-4.23,15.866-14.157c1.953-4.556,3.417-7.973,4.394-10.251c0.325-0.651,0.732-1.302,1.22-1.953
		c6.346-12.367,11.065-11.39,14.157,2.929c11.878-54.838,30.022-103.735,54.43-146.693c-39.866-25.222-84.533-17.9-134,21.967
		c-1.628,1.627-3.336,3.335-5.126,5.125C241.399,506.27,232.775,529.458,225.29,553.215z"/>
	<path style="fill:#5B2B1E;" d="M235.783,494.477c-1.401,0-2.797-0.543-3.846-1.587c-1.758-1.747-2.115-4.463-0.873-6.604
		c30.504-52.582,63.33-80.183,97.573-82.015c34.43-1.779,70.526,22.445,107.06,72.246c1.475,2.014,1.395,4.772-0.192,6.701
		c-1.588,1.928-4.288,2.514-6.535,1.459c-11.553-5.443-25.55-13.348-41.593-23.5c-2.546-1.609-3.308-4.985-1.694-7.531
		c1.598-2.546,4.975-3.292,7.521-1.694c6.194,3.92,12.064,7.489,17.582,10.695c-28.432-32.917-55.9-48.864-81.562-47.49
		c-26.664,1.438-52.96,21.529-78.313,59.783c1.23-0.724,2.535-1.278,3.909-1.662c2.887-0.788,5.907,0.884,6.722,3.782
		c0.815,2.897-0.879,5.912-3.782,6.722c-0.581,0.16-1.113,0.405-1.619,0.746c-0.266,0.181-0.543,0.33-0.831,0.458
		c-0.139,0.075-0.277,0.149-0.421,0.213c-5.497,2.504-10.994,5.379-16.336,8.522C237.69,494.232,236.736,494.477,235.783,494.477z"
		/>
	<path style="fill:#1998D7;" d="M322.118,949.538c-51.208,0-104.449-9.534-158.906-28.464c-12.516-4.123-22.807-8.267-30.514-12.283
		c-19.793-10.162-17.487-22.637-14.35-29.167c2.301-5.177,6.866-10.269,13.881-15.447c21.156-13.646,37.354-35.015,48.432-63.713
		c0.283-1.47,0.874-3.76,1.55-6.125c0.82-5.156,1.619-11.218,2.258-17.598c0.138-7.223,0.383-14.627,0.708-21.796l0.49-12.549
		c3.265-55.671,11.782-109.424,25.321-159.844c0.975-4.059,2.152-8.256,3.494-12.453c1.561-6.147,3.5-12.539,5.662-18.696
		c7.451-23.659,16.219-47.245,26.008-69.913c0.272-0.629,0.661-1.204,1.151-1.694l5.14-5.135
		c51.676-41.684,98.894-49.194,140.764-22.711c2.461,1.555,3.26,4.772,1.822,7.308c-24.017,42.259-42.131,91.102-53.839,145.143
		c-9.327,43.101-14.791,90.558-16.229,141.063c-0.485,13.411-0.245,26.088,0.714,37.721c0.016,1.022,0.053,1.566,0.154,2.056
		c0.405,5.38,0.953,9.928,1.731,14.264c2.179,13.092,6.179,25.183,11.899,36.006c2.472,4.784,5.342,9.364,8.576,13.678
		c8.373,12.858,18.738,24.81,31.01,35.825c0.846,0.831,3.377,3.11,7.797,7.063c3.526,3.004,6.216,5.795,8.128,8.469
		c4.006,4.495,6.812,9.854,7.984,15.489c1.721,17.342-12.517,27.803-42.227,31.66C348.004,948.92,335.119,949.538,322.118,949.538z
		 M255.757,486.775c-9.476,22.03-17.971,44.933-25.263,68.081c-2.115,6.029-3.958,12.112-5.534,18.259
		c-1.348,4.25-2.45,8.192-3.398,12.134C208.176,635.092,199.777,688.1,196.56,742.94l-0.479,11.622c0,0.011,0,0.746,0,0.756
		c-0.325,7.116-0.565,14.477-0.73,22.083c-0.687,7.063-1.518,13.358-2.514,19.324c-0.756,2.791-1.305,4.889-1.774,6.924
		c-12.149,31.639-29.785,54.776-52.64,69.498c-5.098,3.771-8.618,7.563-10.179,11.058c-1.3,2.716-3.862,8.053,9.47,14.903
		c7.212,3.761,16.954,7.67,28.991,11.633c66.883,23.255,131.731,32.032,192.792,26.11c22.584-2.93,33.641-9.385,32.688-19.175
		c-0.693-3.174-2.653-6.85-5.736-10.344c-1.715-2.354-3.878-4.57-6.775-7.031c-4.783-4.272-7.462-6.7-8.128-7.372
		c-12.772-11.441-23.761-24.128-32.448-37.497c-3.387-4.495-6.588-9.598-9.305-14.871c-6.248-11.803-10.621-25.012-12.98-39.202
		c-0.836-4.655-1.433-9.62-1.774-14.68c-0.133-0.437-0.256-1.683-0.256-3.047c-0.97-11.612-1.22-24.725-0.724-38.52
		c1.459-51.133,6.999-99.262,16.469-143.013c11.516-53.167,29.14-101.435,52.416-143.577
		c-36.842-20.826-77.211-12.847-123.23,24.256L255.757,486.775z M190.632,755.073h0.107H190.632z"/>
	<path style="fill:#8E4B07;" d="M226.505,411.002c-2.482,0-4.687-1.694-5.289-4.155c-0.66-2.674,0.778-5.411,3.35-6.392
		c59.857-22.871,105.488-60.923,135.614-113.089c1.124-1.96,3.356-2.993,5.572-2.663c2.232,0.352,4.016,2.046,4.485,4.25
		c1.539,7.169,2.317,14.211,2.317,20.911c0.703,29.742-12.799,52.656-40.129,67.975c-30.579,17.353-66.004,28.496-105.275,33.119
		C226.931,410.992,226.717,411.002,226.505,411.002z"/>
	<path style="fill:#66CCFF;" d="M902.394,880.755c-1.953-4.394-6.021-8.868-12.204-13.425
		c-21.968-14.156-38.728-36.205-50.281-66.146c-0.488-2.115-1.058-4.313-1.709-6.591c-0.976-5.858-1.79-12.041-2.441-18.55
		c-0.163-7.648-0.407-15.051-0.732-22.211c0-0.163,0-0.407,0-0.733c-0.163-3.905-0.326-7.81-0.489-11.716
		c-3.254-55.488-11.635-108.372-25.14-158.653c-0.976-4.068-2.115-8.136-3.417-12.204c-1.628-6.346-3.499-12.529-5.614-18.55
		c-7.485-23.758-16.109-46.945-25.873-69.563c-1.79-1.79-3.498-3.499-5.125-5.126c-49.467-39.867-94.134-47.189-134.001-21.967
		c24.408,42.958,42.551,91.856,54.43,146.693c9.438,43.609,14.889,90.961,16.353,142.055c0.489,13.669,0.244,26.442-0.732,38.32
		c0,0.976-0.082,1.872-0.244,2.685c-0.325,4.882-0.895,9.601-1.709,14.157c-2.278,13.669-6.428,26.198-12.448,37.588
		c-2.604,5.045-5.614,9.845-9.031,14.401c-8.462,13.018-19.039,25.222-31.731,36.612c-0.651,0.651-3.255,3.01-7.811,7.078
		c-3.254,2.766-5.695,5.289-7.322,7.566c-3.743,4.231-6.102,8.706-7.078,13.425c-1.302,13.343,11.228,21.723,37.589,25.14
		c62.159,6.021,127.166-2.766,195.021-26.361c12.367-4.068,22.293-8.055,29.778-11.96
		C902.475,896.538,906.462,889.216,902.394,880.755z"/>
	<path style="fill:#4DBAF0;" d="M802.809,781.657c-0.326,0-2.278-0.488-5.858-1.464c-2.278-0.651-4.149-0.976-5.614-0.976
		c-3.417,0.488-6.428,2.767-9.031,6.834c-0.651,1.139-2.36,4.963-5.126,11.472c-2.441,6.509-5.614,11.797-9.519,15.865
		c-4.556,4.719-9.682,6.916-15.377,6.59c-9.763,0-17.33-5.695-22.7-17.086c-2.766-7.648-5.614-12.936-8.543-15.865
		c-2.278-2.278-5.044-3.58-8.298-3.905c-3.254-0.488-5.777,0.163-7.567,1.952c-0.325,4.882-0.895,9.601-1.709,14.157
		c-2.278,13.668-6.428,26.198-12.448,37.588c-2.604,5.044-5.614,9.845-9.031,14.401c-8.462,13.018-19.039,25.221-31.731,36.612
		c-0.651,0.651-3.255,3.01-7.811,7.078c-3.254,2.766-5.695,5.289-7.322,7.566c-3.743,4.231-6.102,8.706-7.078,13.425
		c-1.302,13.343,11.228,21.723,37.589,25.14c62.159,6.02,127.166-2.766,195.021-26.361c12.367-4.068,22.293-8.055,29.778-11.96
		c12.042-6.183,16.028-13.506,11.96-21.967c-1.953-4.393-6.021-8.868-12.204-13.424c-21.967-14.156-38.728-36.206-50.281-66.146
		c-0.488-2.115-1.058-4.312-1.709-6.59c-0.976-5.858-1.79-12.042-2.441-18.55c-0.163-7.648-0.407-15.051-0.732-22.211
		c0-0.163,0-0.407,0-0.733c-2.604,7.811-5.208,13.425-7.811,16.842c-2.766,4.231-6.346,7.404-10.739,9.519
		C811.921,781.739,807.365,782.471,802.809,781.657z"/>
	<path style="fill:#98E6F9;" d="M742.935,573.782c2.767-1.628,6.021-0.976,9.763,1.953c4.394,3.417,10.17,10.902,17.33,22.455
		c6.509,10.577,12.692,17.492,18.55,20.747c5.533,3.092,10.251,3.336,14.157,0.733c3.254-2.115,5.37-9.194,6.346-21.236
		c0.488-6.509,0.325-12.448-0.488-17.818c-0.976-4.068-2.115-8.136-3.417-12.204c-1.628-6.346-3.499-12.529-5.614-18.55
		c-7.485-23.758-16.11-46.945-25.873-69.563c-1.79-1.79-3.498-3.499-5.125-5.126c-49.468-39.866-94.134-47.189-134.001-21.967
		c24.408,42.958,42.551,91.856,54.43,146.693c3.091-14.32,7.811-15.296,14.156-2.929c0.488,0.651,0.895,1.302,1.221,1.953
		c0.977,2.278,2.441,5.695,4.393,10.251c3.906,9.926,9.194,14.645,15.866,14.157c6.021-0.651,10.495-5.939,13.424-15.865
		c2.604-9.275,3.58-17.818,2.929-25.629C740.983,577.769,741.633,575.084,742.935,573.782z"/>
	
		<radialGradient id="SVGID_00000101089639506332989500000015862438406441279915_" cx="690.9158" cy="469.7175" r="74.6052" gradientUnits="userSpaceOnUse">
		<stop  offset="0.4916" style="stop-color:#704104"/>
		<stop  offset="0.5514" style="stop-color:#6D3E04"/>
		<stop  offset="0.5965" style="stop-color:#633604"/>
		<stop  offset="0.6367" style="stop-color:#532804"/>
		<stop  offset="0.6535" style="stop-color:#4A2004"/>
	</radialGradient>
	<path style="fill:url(#SVGID_00000101089639506332989500000015862438406441279915_);" d="M594.363,478.508
		c11.39-5.37,25.059-13.099,41.005-23.188c39.867-25.222,84.533-17.9,134.001,21.967c1.139,0.326,2.197,0.814,3.173,1.465
		c0.325,0,0.488,0.081,0.488,0.244c5.695,2.603,11.309,5.532,16.842,8.787C730.316,385.106,665.146,382.014,594.363,478.508z"/>
	<path style="fill:#5B2B1E;" d="M789.871,493.237c-0.948,0-1.902-0.245-2.765-0.756c-5.342-3.132-10.844-6.008-16.346-8.522
		c-0.149-0.075-0.293-0.149-0.432-0.223c-0.277-0.128-0.543-0.266-0.799-0.437c-0.517-0.352-1.054-0.597-1.63-0.757
		c-2.903-0.81-4.596-3.824-3.782-6.722c0.82-2.897,3.867-4.581,6.722-3.782c1.364,0.383,2.674,0.937,3.899,1.651
		c-25.348-38.254-51.639-58.334-78.302-59.772c-25.827-1.299-53.135,14.573-81.562,47.49c5.518-3.207,11.388-6.775,17.582-10.696
		c2.541-1.576,5.918-0.841,7.521,1.694c1.614,2.546,0.852,5.923-1.694,7.532c-16.043,10.152-30.04,18.056-41.593,23.5
		c-2.248,1.055-4.954,0.469-6.536-1.459c-1.587-1.928-1.667-4.687-0.192-6.7c36.534-49.791,72.497-74.1,107.06-72.247
		c34.243,1.833,67.069,29.434,97.568,82.015c1.241,2.141,0.884,4.858-0.874,6.605C792.667,492.694,791.276,493.237,789.871,493.237z
		"/>
	<path style="fill:#1998D7;" d="M840.476,753.589c0.325,7.201,0.576,14.647,0.741,22.339c0.612,5.955,1.406,12.016,2.365,17.769
		c0.543,1.768,1.134,4.059,1.646,6.264c10.844,27.963,27.042,49.333,47.921,62.787c7.303,5.369,11.862,10.471,14.227,15.787
		c3.073,6.381,5.375,18.855-14.45,29.039c-7.686,4.005-17.977,8.149-30.563,12.282c-54.409,18.919-107.672,28.454-158.805,28.454
		c-12.959,0-25.78-0.607-38.451-1.833c-29.886-3.878-44.124-14.339-42.488-31.106c1.252-6.211,4.059-11.569,8.421-16.501
		c1.561-2.237,4.25-5.028,7.872-8.117c4.325-3.856,6.86-6.147,7.489-6.775c12.485-11.217,22.85-23.17,31.015-35.729
		c3.441-4.613,6.311-9.193,8.756-13.934c5.742-10.865,9.742-22.946,11.915-35.974c0.788-4.41,1.337-8.969,1.646-13.625
		c0.187-1.182,0.234-1.726,0.234-2.322c0.975-12.069,1.214-24.756,0.735-38.137c-1.454-50.557-6.914-98.015-16.235-141.095
		c-11.702-54.03-29.817-102.862-53.839-145.143c-1.438-2.535-0.634-5.752,1.821-7.308c41.892-26.493,89.099-18.972,140.344,22.328
		l5.555,5.518c0.49,0.49,0.879,1.065,1.151,1.694c9.801,22.701,18.573,46.286,26.073,70.084c2.082,5.934,4.021,12.325,5.693,18.823
		c1.252,3.899,2.429,8.107,3.436,12.304c13.502,50.249,22.019,103.991,25.279,159.598l0.495,11.803V753.589z M642.714,457.284
		c23.281,42.153,40.906,90.42,52.416,143.577c9.46,43.719,15.004,91.848,16.474,143.044c0.49,13.774,0.24,26.888-0.746,38.936
		c0.016,0.895-0.106,2.141-0.33,3.281c-0.245,4.378-0.846,9.342-1.693,14.072c-2.354,14.115-6.733,27.324-12.996,39.17
		c-2.69,5.23-5.891,10.333-9.481,15.127c-8.485,13.071-19.473,25.758-32.459,37.402c-0.458,0.469-3.132,2.908-7.824,7.084
		c-2.988,2.546-5.151,4.762-6.514,6.68c-3.441,3.93-5.401,7.595-6.173,11.356c-0.868,9.214,10.19,15.67,32.949,18.621
		c60.896,5.944,125.733-2.876,192.531-26.11c12.112-3.984,21.854-7.883,29.045-11.633c13.364-6.871,10.802-12.208,9.566-14.775
		c-1.625-3.644-5.14-7.425-10.525-11.399c-22.573-14.53-40.209-37.668-52.129-68.571c-0.698-2.77-1.246-4.868-1.869-7.063
		c-1.135-6.562-1.96-12.858-2.621-19.494c-0.192-8.032-0.431-15.393-0.757-22.509c-0.005-0.085-0.005-0.16-0.005-0.245
		l-0.485-12.219c-3.212-54.776-11.612-107.784-24.959-157.468c-0.98-4.09-2.082-8.021-3.339-11.963
		c-1.683-6.509-3.526-12.592-5.566-18.397c-7.34-23.287-15.84-46.19-25.327-68.252l-4.373-4.378
		C719.914,444.427,679.562,436.458,642.714,457.284z"/>
	<path style="fill:#8E4B07;" d="M799.154,409.763c-0.213,0-0.426-0.011-0.645-0.042c-39.276-4.624-74.707-15.766-105.302-33.141
		c-27.302-15.297-40.805-38.211-40.107-68.081c0-6.562,0.783-13.593,2.322-20.784c0.469-2.205,2.253-3.899,4.485-4.25
		c2.168-0.341,4.437,0.703,5.571,2.663c30.12,52.166,75.751,90.217,135.614,113.089c2.573,0.98,4.011,3.718,3.35,6.392
		C803.841,408.069,801.631,409.763,799.154,409.763z"/>
	
		<linearGradient id="SVGID_00000070833435883059829160000001626714892002126237_" gradientUnits="userSpaceOnUse" x1="518.7546" y1="696.9849" x2="517.6929" y2="756.3463">
		<stop  offset="0.5101" style="stop-color:#EE83A2"/>
		<stop  offset="1" style="stop-color:#EE4E72"/>
	</linearGradient>
	<path style="fill:url(#SVGID_00000070833435883059829160000001626714892002126237_);" d="M587.766,784.123
		c-0.325-1.79-0.651-3.336-0.976-4.637c-10.577-48.328-32.707-74.526-66.39-78.594c-0.326-0.163-0.651-0.163-0.976,0
		c-0.814-0.163-1.546-0.163-2.197,0c-0.163,0-0.325,0-0.488,0c-0.651-0.163-1.383-0.163-2.197,0c-0.326-0.163-0.651-0.163-0.976,0
		c-33.684,4.068-55.813,30.266-66.39,78.594c-0.326,1.302-0.651,2.848-0.976,4.637c-0.814,3.417-1.709,7.404-2.685,11.96
		l6.346-3.174c3.417-2.278,6.753-4.475,10.008-6.59c11.228-6.997,22.374-12.367,33.439-16.109
		c14.97-5.695,30.266-5.858,45.887-0.488c11.391,3.742,23.025,9.275,34.904,16.598c3.254,2.115,6.59,4.312,10.007,6.59l6.346,3.174
		C589.474,791.527,588.58,787.54,587.766,784.123z"/>
	
		<radialGradient id="SVGID_00000161595187381786115150000002257782129527836595_" cx="516.9823" cy="751.616" r="128.1268" gradientUnits="userSpaceOnUse">
		<stop  offset="0.375" style="stop-color:#260000"/>
		<stop  offset="0.5126" style="stop-color:#290000"/>
		<stop  offset="0.614" style="stop-color:#320000"/>
		<stop  offset="0.7037" style="stop-color:#420000"/>
		<stop  offset="0.7862" style="stop-color:#590000"/>
		<stop  offset="0.8626" style="stop-color:#750000"/>
	</radialGradient>
	<path style="fill:url(#SVGID_00000161595187381786115150000002257782129527836595_);" d="M627.307,797.791l1.464-0.732
		c4.393-2.604,7.973-6.184,10.74-10.74c5.695-8.624,8.462-22.13,8.298-40.518c-0.488-21.154-4.475-42.958-11.96-65.414
		c-11.228-31.568-28.069-58.824-50.525-81.767c-14.482-13.343-29.778-22.211-45.887-26.605c-16.435-4.556-32.3-4.231-47.596,0.976
		c-15.133,4.556-29.534,13.099-43.203,25.628c-22.455,22.944-39.297,50.2-50.525,81.767c-7.485,22.456-11.472,44.26-11.96,65.414
		c-0.163,18.388,2.603,31.893,8.299,40.518c2.766,4.556,6.346,8.136,10.74,10.74l1.464,0.732c1.464,0.814,3.091,1.546,4.882,2.197
		c4.719,1.627,9.601,2.197,14.645,1.709c5.532-0.651,11.309-2.522,17.329-5.614c0.976-4.556,1.871-8.543,2.685-11.96
		c0.325-1.79,0.651-3.336,0.976-4.637c10.577-48.328,32.707-74.526,66.39-78.594c0.325-0.163,0.651-0.163,0.976,0
		c0.813-0.163,1.546-0.163,2.197,0c0.163,0,0.325,0,0.488,0c0.651-0.163,1.383-0.163,2.197,0c0.325-0.163,0.651-0.163,0.976,0
		c33.683,4.068,55.813,30.266,66.39,78.594c0.325,1.302,0.651,2.848,0.976,4.637c0.814,3.417,1.709,7.404,2.685,11.96
		c6.021,3.091,11.797,4.963,17.33,5.614c5.044,0.488,9.926-0.082,14.645-1.709C624.215,799.337,625.842,798.605,627.307,797.791
		L627.307,797.791z"/>
	<path style="fill:#A13636;" d="M590.445,801.541c-2.52,0-4.783-1.757-5.326-4.314c-0.964-4.517-1.854-8.458-2.658-11.835
		c-0.362-1.949-0.661-3.377-0.959-4.581c-10.141-46.307-30.28-70.627-61.604-74.483c-0.538,0.043-1.065,0.011-1.593-0.096
		c-0.442,0.117-0.922-0.352-1.566,0.117c-0.469,0-0.932-0.064-1.385-0.181c-0.395,0.085-0.666,0.139-1.135,0.139
		c-31.415,3.803-51.602,28.113-61.716,74.345c-0.346,1.374-0.639,2.802-0.938,4.442c-0.863,3.675-1.752,7.627-2.722,12.144
		c-0.628,2.94-3.548,4.751-6.477,4.186c-2.945-0.639-4.82-3.537-4.187-6.487c0.991-4.602,1.891-8.618,2.711-12.07
		c0.287-1.651,0.645-3.313,1.001-4.719c11.025-50.441,34.935-78.308,71.016-82.665l0.005,0.032c0.367-0.053,0.756-0.075,1.14-0.075
		c0,0,0,0,0.005,0c0.98-0.159,1.938-0.181,2.866-0.053c0.581-0.139,1.726-0.149,2.983,0.053c0.224-0.192,0.772,0.022,1.14,0.075
		l0.005-0.032c36.081,4.357,59.991,32.224,71.064,82.846c0.314,1.236,0.666,2.898,1.017,4.826c0.762,3.164,1.662,7.191,2.647,11.793
		c0.634,2.94-1.247,5.848-4.192,6.477C591.207,801.499,590.823,801.541,590.445,801.541z"/>
	<path style="fill:#CC6600;" d="M611.191,807.315c-1.305,0-2.61-0.064-3.925-0.181c-6.301-0.756-12.757-2.833-19.308-6.189
		l-6.291-3.153c-3.989-2.61-7.308-4.794-10.546-6.903c-11.361-6.998-22.717-12.399-33.625-15.99
		c-14.584-5.007-28.379-4.858-42.249,0.405c-10.813,3.665-21.684,8.906-32.49,15.638c-3.153,2.056-6.471,4.24-9.865,6.509
		c-0.192,0.128-0.388,0.234-0.591,0.341l-6.349,3.174c-6.498,3.334-12.948,5.412-19.121,6.147
		c-5.928,0.607-11.649-0.107-17.071-1.971c-2.157-0.777-4.037-1.641-5.736-2.578l-1.273-0.628
		c-5.481-3.228-9.731-7.468-12.959-12.783c-6.253-9.46-9.262-23.713-9.092-43.388c0.5-21.7,4.623-44.241,12.245-67.102
		c11.478-32.278,28.895-60.454,51.799-83.858c14.429-13.241,29.673-22.264,45.53-27.037c16.102-5.486,33.204-5.827,50.627-1.001
		c16.848,4.591,33.05,13.955,48.123,27.836c23.106,23.606,40.523,51.783,51.969,83.954c7.654,22.967,11.771,45.519,12.272,67.123
		c0.176,19.761-2.833,34.003-9.204,43.644c-3.105,5.135-7.356,9.374-12.512,12.432l-1.795,0.916c-1.502,0.831-3.393,1.694-5.47,2.44
		C620.028,806.58,615.649,807.315,611.191,807.315z M516.638,760.358c8.032,0,16.171,1.395,24.33,4.207
		c11.649,3.825,23.783,9.588,35.99,17.108c3.388,2.205,6.738,4.41,10.173,6.7l5.758,2.834c5.444,2.791,10.658,4.495,15.537,5.081
		c4.202,0.373,8.229-0.085,12.219-1.459c1.422-0.522,2.791-1.129,4.026-1.811l1.657-0.842c3.313-1.97,6.206-4.868,8.517-8.682
		c5.178-7.84,7.665-20.443,7.511-37.636c-0.474-20.443-4.405-41.918-11.676-63.746c-10.876-30.573-27.457-57.418-49.253-79.682
		c-13.571-12.485-28.251-21.018-43.42-25.151c-15.303-4.229-30.233-3.942-44.406,0.874c-14.456,4.357-28.278,12.57-41.274,24.48
		c-21.582,22.062-38.163,48.907-49.072,79.586c-7.244,21.721-11.175,43.186-11.648,63.714c-0.149,17.118,2.338,29.721,7.393,37.38
		c2.434,3.995,5.331,6.892,8.969,9.044l1.134,0.554c1.422,0.788,2.791,1.395,4.293,1.949c3.867,1.332,8.022,1.822,12.272,1.406
		c4.751-0.565,9.96-2.269,15.35-5.039l6.099-3.047c3.334-2.215,6.589-4.367,9.779-6.434c11.612-7.244,23.244-12.847,34.664-16.703
		C499.748,761.924,508.137,760.358,516.638,760.358z M449.862,792.913h0.107H449.862z"/>
	
		<linearGradient id="SVGID_00000091728359968821495720000015499848088522222989_" gradientUnits="userSpaceOnUse" x1="515.9696" y1="710.6246" x2="514.4827" y2="793.7651">
		<stop  offset="0.0716" style="stop-color:#EE9FAF"/>
		<stop  offset="0.7369" style="stop-color:#EE4E72"/>
	</linearGradient>
	<path style="fill:url(#SVGID_00000091728359968821495720000015499848088522222989_);" d="M552.092,737.938
		c0,9.164-17.182,1.844-37.402,1.844c-20.22,0-35.821,7.321-35.821-1.844c0-9.164,17.708-26.076,37.928-26.076
		C537.018,711.862,552.092,728.773,552.092,737.938z"/>
	<path style="opacity:0.53;fill:#FFFFFF;" d="M255.59,494.947c0,0-22.233,53.6-39.652,146.739
		c-8.11,43.365-12.094,91.014-17.888,153.581c-2.113,22.82-18.611,45.512-34.719,62.308c-12.979,13.532-28.647,22.645-30.999,30.069
		c-6.669,21.051,152.768,51.447,167.065,41.235c0,0-93.768-22.891-100.011-47.113c-6.345-24.62,16.024-45.891,18.813-81.23
		c0,0,34.174-277.72,77.065-332.866c0,0-19.6,9.342-26.449,14.051C265.745,483.832,255.59,494.947,255.59,494.947z"/>
	<path style="opacity:0.53;fill:#FFFFFF;" d="M648.766,457.989c0,0,49.581,94.301,64.137,220.451
		c5.709,49.475,9.29,102.138-5.197,150.427c-8.082,26.941-38.186,61.825-66.371,81.827c0,0-23.026,35.498,142.934,16.618
		c0,0-79.523-7.957-73.692-29.538c8.499-31.458,31.365-57.249,33.192-106.884c3.402-92.422-23.661-280.847-70.029-341.762
		c0,0-6.243-0.604-16.313,3.827C655.068,453.992,648.766,457.989,648.766,457.989z"/>
	<path style="fill:#EF9D33;" d="M572.572,825.534c0.951,13.973-15.677,1.033-49.343,1.033c-33.666,0-60.957,14.005-60.957,0
		c0-14.005,21.681-33.971,55.347-33.971C551.284,792.596,571.319,807.121,572.572,825.534z"/>
</g>
</svg>
